<svg width="1280" height="832" viewBox="0 0 1280 832" fill="none" xmlns="http://www.w3.org/2000/svg">
<g clip-path="url(#clip0_42_2)">
<rect width="1280" height="832" fill="#84BCA7"/>
<path d="M616.987 334C307.487 408 820.487 723.5 148.987 660C-76.0132 538.5 -25.0452 462.061 -25.0452 266C-25.0452 69.939 172.397 -89 415.955 -89C659.512 -89 845.987 90.5 616.987 334Z" fill="#365A44"/>
<path d="M1213.05 217.631C1684.27 53.6324 1186.34 505.452 1149.2 1086.27C591.93 1037.18 980.46 284.169 905.06 402.649C654.732 796.005 681.226 381.859 813.741 173.63C779.024 31.6818 1175.73 -318.827 1213.05 217.631Z" fill="#FFE500"/>
<path d="M705.329 539.636C705.329 778.223 1801.25 865.817 8.84698 1186C-303.148 1186 215.689 891.132 215.689 652.545C215.689 413.958 -303.148 321.999 8.84698 321.999C265.874 474.727 705.329 301.049 705.329 539.636Z" fill="#759F6E"/>
</g>
<defs>
<clipPath id="clip0_42_2">
<rect width="1280" height="832" fill="white"/>
</clipPath>
</defs>
</svg>
